<svg width="64" height="64" viewBox="0 0 64 64" fill="none" xmlns="http://www.w3.org/2000/svg">
<circle cx="32" cy="32" r="32" fill="#F15252"/>
<path d="M26.75 16H21C20.4477 16 20 16.4477 20 17V46C20 46.5523 20.4477 47 21 47H26.75C27.3023 47 27.75 46.5523 27.75 46V17C27.75 16.4477 27.3023 16 26.75 16Z" fill="white"/>
<path d="M42.2501 16H36.5001C35.9478 16 35.5001 16.4477 35.5001 17V46C35.5001 46.5523 35.9478 47 36.5001 47H42.2501C42.8023 47 43.2501 46.5523 43.2501 46V17C43.2501 16.4477 42.8023 16 42.2501 16Z" fill="white"/>
</svg>
