<svg version="1" xmlns="http://www.w3.org/2000/svg" width="746.667" height="746.667" viewBox="0 0 560.000000 560.000000"><path d="M265.7 67.6c-.1.1-3.3.4-7.2.8-3.8.3-7.9.8-9 1-2.5.5-10.6 2-12 2.2-.5.1-1.2.3-1.5.4-.9.3-4.5 1-6.2 1.2-1 .1-1.8.6-1.8 1.1 0 .4-.4.6-.9.2-1-.6-17 4.4-27.1 8.5-8.1 3.2-23.8 11.2-30.3 15.3-3.2 2.1-5.9 3.7-6.2 3.7-.3 0-1.3.6-2.2 1.4-1 .8-5.6 4.3-10.3 7.7-6.9 5.2-31.5 28.6-35.5 34-14.6 19.2-21.9 31.2-29.5 48-3.5 7.8-10.4 27-11.6 32.1-.2 1-.6 2.6-.8 3.5-2 8.5-4.6 24.3-5.2 30.8-1.2 14.6-.6 41.7 1.1 50.5.2 1.3.7 4 1 6 .3 2 .8 4.7 1.1 6 1.3 6.3 1.6 7.6 1.8 8.5.7 3 3 10.8 4.9 16.5 1.2 3.6 2.2 6.7 2.2 7 0 .3 1.1 2.7 2.3 5.4 1.2 2.7 2.2 5.1 2.2 5.4 0 1.2 10.2 20.6 14.1 26.8 12.3 19.6 31.8 41.5 48.9 54.8 4.7 3.7 9 7.1 9.6 7.5 2.8 2.2 17.5 11.1 18.3 11.1.5 0 1.1.3 1.3.7.4 1.1 12.1 6.9 13.1 6.5.4-.1.7.3.7.8 0 .6.5 1 1.1 1 .6 0 2.7.7 4.7 1.6 2.1.9 4.6 2 5.7 2.5 4.5 1.9 23.8 7.9 25.6 7.9 1 0 1.9.4 1.9.8 0 .5 1 .8 2.2.7 1.2-.1 4.7.4 7.7 1.1 11 2.6 23.6 3.7 41.1 3.6 20.9-.2 34.6-1.5 49-4.9 3.6-.8 7.6-1.6 9-1.8 1.4-.2 3.9-.9 5.5-1.5 1.7-.6 3.1-1.1 3.3-1 .6.3 14.2-4.4 22.2-7.7 14.4-5.9 36.8-18.6 43.6-24.8.6-.5 2.9-2.3 5-4 4.6-3.5 18.5-16.4 19.7-18.3.4-.7 1.8-2.2 3-3.5 7.8-8 21.1-27.9 27.9-41.7 4.1-8.4 9.5-21.4 10.3-25 .2-.8.8-2.9 1.5-4.5 1.8-4.7 5.9-20.5 5.3-20.5-.3 0 0-.6.6-1.3.6-.8.8-1.6.5-2-.3-.3-.1-2.1.5-3.9.5-1.8 1.3-6 1.7-9.3.3-3.3.8-6.3 1-6.7.8-1.3 1.8-15.7 1.8-27.4.1-11.1-.1-12.3-2.3-15.5-2.8-4.2-6.5-6-12.2-6.1-7.1-.1-14.3 7.4-13.8 14.4.2 2 0 4-.3 4.4-.4.3-.3 1.6.2 2.9.5 1.3.7 2.5.4 2.7-.2.3-.6 4-.9 8.4-.8 12.8-1.6 19-3.6 28.7-1.1 5.1-2.2 10.3-2.5 11.7-.6 3.1-6.4 21.1-7.3 22.5-.3.5-.6 1.5-.7 2.2-.4 2.3-11.8 24.3-12.6 24.3-.4 0-.8.5-.8 1.1 0 1.6-10.3 16-15.8 22.1-11.4 12.6-29.3 27.3-39.9 32.7-2.7 1.4-5.9 3.2-7.3 4.1-6.4 4.2-34.3 14.6-36 13.5-.6-.3-1-.1-1 .4 0 .6-.3 1-.7.9-1-.2-7.1 1-14.3 2.7-5.7 1.4-14.4 2.5-24 3.1-3 .1-5.5.3-5.5.4 0 .4-23.1.5-23.9.1-.5-.2-3.6-.6-6.8-.8-11.4-.6-44.3-8.6-47.2-11.4-.6-.5-1.6-.9-2.4-.9-2.6 0-23.1-10.7-32.8-17.3-10-6.6-16.9-12.1-25.9-20.7-9.2-8.7-21.5-23-21.5-24.8 0-.6-.4-1.2-.9-1.4-2.6-1-17.7-28.1-21.6-38.8-6.1-16.6-10.9-36-11.9-47.7-.2-2.8-.7-5.7-1.2-6.4-.4-.8-.3-1 .4-.5.9.5 1 0 .4-1.6-1.8-5.5-.1-33.5 2.9-47.7 1.2-5.3 2.2-10 2.2-10.5.1-.5 1.9-5.9 4-12s3.9-11.6 4-12.1c.6-2.4 10.9-22 13.7-26.1 1.6-2.5 3-4.8 3-5.2 0-.4 1.1-1.9 2.5-3.4s2.5-3 2.5-3.3c0-.7 6.2-8.7 10-12.7 7.5-8.1 10.2-10.8 15.2-15.3 8.5-7.8 11.6-10.2 21.8-17 8.1-5.4 29.1-16.8 31.2-17 .3 0 1-.3 1.4-.8.4-.4 1.7-.7 2.9-.7 1.1 0 2.5-.4 3.1-.9.9-.8 10.5-4.2 13.4-4.7.8-.2 5.4-1.2 10.2-2.3 10.4-2.5 22.6-3.9 35.8-4.2 10-.3 15.7-4 17.6-11.3 1.5-6.2-2.8-14.4-8.6-16.2-2.1-.6-18.6-1.3-19.3-.8zM330 75.3c-8.5 2.2-12.8 11.1-9.4 19.2 1.4 3.4 6.6 8 7.8 6.8.3-.3.6-.1.6.5 0 .7.8 1.2 1.8 1.2 2.3 0 12.1 3.3 17.9 6 6.6 3.1 14.1 3.5 18 1.1 4.8-3 6.6-6.5 6.6-12.3-.1-2.8-.5-5.3-1-5.7-.4-.3-1.3-1.5-1.9-2.6-1.4-2.5-7.6-5.6-20.1-10.1-12.8-4.6-16.1-5.2-20.3-4.1zM401.5 115c-2.2.9-8.4 7-7.1 7 .5 0 .4.6-.2 1.2-1.4 1.7-.7 9.2 1 11.7.8 1.1 3.8 4.2 6.8 6.8 2.9 2.6 8 7.6 11.2 11 7 7.2 10.2 8.7 16.4 8 3.6-.4 5.2-1.2 8-4.2 1.9-2.1 3.5-4.7 3.5-5.9.1-1.1.2-3 .3-4.1.2-4-2.8-8.4-12.1-17.6-12.1-11.9-16.5-14.9-21.8-14.8-2.2 0-4.9.4-6 .9zM456.5 180c-4.7 1-7.1 2.7-9.4 6.4-3.1 4.9-2.6 9.2 2.3 20.8 2.4 5.6 4.7 11.4 5.1 12.8 2.3 8.6 6.6 12.8 13.5 13.4 4 .3 9.2-1.4 11.5-3.8 1.8-2 3.5-6.6 3.5-9.9 0-4.9-8.3-27.1-12.4-33.2-3.3-4.9-9.1-7.6-14.1-6.5z"/><path d="M150.7 195.8c-1.6.3-1.7 3.4-1.7 35.3 0 27.2.3 34.9 1.3 35 .6.1 21.2.2 45.7.3l44.5.1.5 59.9.5 59.9 37-.1c20.4 0 37.8-.1 38.7-.1 1.7-.1 1.8-3.8 2-59.8l.3-59.8h91l.3-35.3c.1-19.3-.1-35.2-.5-35.3-2.2-.3-258.2-.4-259.6-.1z"/></svg>