<?xml version="1.0" standalone="no"?>
<!DOCTYPE svg PUBLIC "-//W3C//DTD SVG 20010904//EN"
 "http://www.w3.org/TR/2001/REC-SVG-20010904/DTD/svg10.dtd">
<svg version="1.0" xmlns="http://www.w3.org/2000/svg"
 width="512.000000pt" height="512.000000pt" viewBox="0 0 512.000000 512.000000"
 preserveAspectRatio="xMidYMid meet">
<metadata>
Created by potrace 1.11, written by Peter Selinger 2001-2013
</metadata>
<g transform="translate(0.000000,512.000000) scale(0.100000,-0.100000)"
fill="#000000" stroke="none">
<path d="M481 5100 c-4 -3 -7 -205 -7 -450 l1 -445 795 -1 c437 -1 800 -2 805
-3 7 -1 10 -708 9 -2101 l-1 -2100 482 0 483 0 0 2096 c0 1152 3 2098 7 2102
3 3 365 7 803 7 l797 0 1 435 c1 239 0 442 -2 450 -3 13 -243 15 -2085 15
-1144 0 -2084 -2 -2088 -5z"/>
</g>
</svg>
